<svg width="134" height="160" viewBox="0 0 134 160" fill="none" xmlns="http://www.w3.org/2000/svg">
<circle cx="8.48183" cy="61.2927" r="7.07215" transform="rotate(13 8.48183 61.2927)" fill="#FBC201" fill-opacity="0.35"/>
<circle cx="8.48183" cy="106.083" r="7.07215" transform="rotate(13 8.48183 106.083)" fill="#FBC201" fill-opacity="0.35"/>
<circle cx="8.48183" cy="9.43026" r="7.07215" transform="rotate(13 8.48183 9.43026)" fill="#FBC201" fill-opacity="0.35"/>
<circle cx="8.48183" cy="150.873" r="7.07215" transform="rotate(13 8.48183 150.873)" fill="#FBC201" fill-opacity="0.35"/>
<circle cx="42.895" cy="60.3442" r="7.07215" transform="rotate(13 42.895 60.3442)" fill="#FBC201" fill-opacity="0.35"/>
<circle cx="42.895" cy="105.134" r="7.07215" transform="rotate(13 42.895 105.134)" fill="#FBC201" fill-opacity="0.35"/>
<circle cx="42.895" cy="8.48178" r="7.07215" transform="rotate(13 42.895 8.48178)" fill="#FBC201" fill-opacity="0.35"/>
<circle cx="42.895" cy="149.925" r="7.07215" transform="rotate(13 42.895 149.925)" fill="#FBC201" fill-opacity="0.35"/>
<circle cx="82.9705" cy="60.3442" r="7.07215" transform="rotate(13 82.9705 60.3442)" fill="#FBC201" fill-opacity="0.35"/>
<circle cx="82.9705" cy="105.134" r="7.07215" transform="rotate(13 82.9705 105.134)" fill="#FBC201" fill-opacity="0.35"/>
<circle cx="82.9705" cy="8.48178" r="7.07215" transform="rotate(13 82.9705 8.48178)" fill="#FBC201" fill-opacity="0.35"/>
<circle cx="82.9705" cy="149.925" r="7.07215" transform="rotate(13 82.9705 149.925)" fill="#FBC201" fill-opacity="0.35"/>
<circle cx="125.403" cy="60.3442" r="7.07215" transform="rotate(13 125.403 60.3442)" fill="#FBC201" fill-opacity="0.35"/>
<circle cx="125.403" cy="105.134" r="7.07215" transform="rotate(13 125.403 105.134)" fill="#FBC201" fill-opacity="0.35"/>
<circle cx="125.403" cy="8.48178" r="7.07215" transform="rotate(13 125.403 8.48178)" fill="#FBC201" fill-opacity="0.35"/>
<circle cx="125.403" cy="149.925" r="7.07215" transform="rotate(13 125.403 149.925)" fill="#FBC201" fill-opacity="0.35"/>
</svg>
