<svg width="70" height="70" viewBox="0 0 70 70" fill="none" xmlns="http://www.w3.org/2000/svg">
<path d="M0 10C0 4.47715 4.47715 0 10 0H60C65.5229 0 70 4.47715 70 10V60C70 65.5229 65.5229 70 60 70H10C4.47715 70 0 65.5229 0 60V10Z" fill="#FFC107" fill-opacity="0.42"/>
<path d="M38.3333 44.5333C36.5155 43.6547 34.9543 42.3231 33.8 40.6667H20V20.6667H50V24.4333C51.3493 25.3817 52.4848 26.6024 53.3333 28.0167V20.6667C53.3333 19.7826 52.9821 18.9348 52.357 18.3096C51.7319 17.6845 50.8841 17.3333 50 17.3333H20C19.1159 17.3333 18.2681 17.6845 17.643 18.3096C17.0179 18.9348 16.6667 19.7826 16.6667 20.6667V40.6667C16.6667 41.5507 17.0179 42.3986 17.643 43.0237C18.2681 43.6488 19.1159 44 20 44H31.6667V47.3333H28.3333V50.6667H41.6667V47.3333H38.3333V44.5333Z" fill="#FF9A62"/>
<path d="M43.3333 24C41.3555 24 39.4221 24.5865 37.7776 25.6853C36.1331 26.7841 34.8514 28.3459 34.0945 30.1732C33.3377 32.0004 33.1396 34.0111 33.5255 35.9509C33.9113 37.8907 34.8637 39.6725 36.2623 41.0711C37.6608 42.4696 39.4426 43.422 41.3824 43.8079C43.3222 44.1937 45.3329 43.9957 47.1602 43.2388C48.9874 42.4819 50.5492 41.2002 51.648 39.5557C52.7468 37.9112 53.3333 35.9778 53.3333 34C53.3333 31.3478 52.2798 28.8043 50.4044 26.9289C48.529 25.0536 45.9855 24 43.3333 24ZM43.3333 36.5C42.8389 36.5 42.3555 36.3534 41.9444 36.0787C41.5333 35.804 41.2129 35.4135 41.0236 34.9567C40.8344 34.4999 40.7849 33.9972 40.8814 33.5123C40.9778 33.0273 41.2159 32.5819 41.5656 32.2322C41.9152 31.8826 42.3607 31.6445 42.8456 31.548C43.3306 31.4516 43.8332 31.5011 44.29 31.6903C44.7469 31.8795 45.1373 32.2 45.412 32.6111C45.6867 33.0222 45.8333 33.5055 45.8333 34C45.8333 34.663 45.5699 35.2989 45.1011 35.7678C44.6323 36.2366 43.9964 36.5 43.3333 36.5Z" fill="#FF9A62"/>
</svg>
