<svg width="70" height="70" viewBox="0 0 70 70" fill="none" xmlns="http://www.w3.org/2000/svg">
<path d="M0 10C0 4.47715 4.47715 0 10 0H60C65.5229 0 70 4.47715 70 10V60C70 65.5229 65.5229 70 60 70H10C4.47715 70 0 65.5229 0 60V10Z" fill="#FFC107" fill-opacity="0.42"/>
<path d="M44.86 23.95C46.4502 25.5827 47.6091 27.5853 48.2325 29.7775H52.5V37.28H48.2325C47.6099 39.474 46.4509 41.4784 44.86 43.1125L46.9975 46.8125L40.5025 50.5625L38.37 46.8625C36.1588 47.4202 33.8437 47.4202 31.6325 46.8625L29.4975 50.5625L23.0025 46.8125L25.14 43.1125C23.5491 41.4784 22.3901 39.474 21.7675 37.28H17.5V29.78H21.7675C22.3901 27.586 23.5491 25.5816 25.14 23.9475L23 20.25L29.4925 16.5H29.5L31.635 20.195C33.8462 19.6373 36.1613 19.6373 38.3725 20.195L40.5 16.5H40.505L47 20.25L44.8625 23.95H44.86ZM42.5 33.53C42.5 31.5409 41.7098 29.6332 40.3033 28.2267C38.8968 26.8202 36.9891 26.03 35 26.03C33.0109 26.03 31.1032 26.8202 29.6967 28.2267C28.2902 29.6332 27.5 31.5409 27.5 33.53C27.5 35.5191 28.2902 37.4268 29.6967 38.8333C31.1032 40.2398 33.0109 41.03 35 41.03C36.9891 41.03 38.8968 40.2398 40.3033 38.8333C41.7098 37.4268 42.5 35.5191 42.5 33.53Z" fill="#FF9A62"/>
</svg>
